# xmcd CD database file
#
# Track frame offsets:
#	182
#	46502
#	102792
#	144892
#	198255
#	216890
#
# Disc length: 3420 seconds
#
# Revision: 1
# Processed by: cddbd v1.5.2PL0 Copyright (c) Steve Scherf et al.
# Submitted via: CDex 1.51
#
DISCID=460d5a06
DTITLE=The Dead C - Repent
DYEAR=1996
DGENRE=
TTITLE0=I
TTITLE1=II
TTITLE2=III
TTITLE3=IV
TTITLE4=V
TTITLE5=VI
EXTD=YEAR: 1996
EXTT0=
EXTT1=
EXTT2=
EXTT3=
EXTT4=
EXTT5=
PLAYORDER=
